<svg xmlns="http://www.w3.org/2000/svg" version="1.1" xmlns:xlink="http://www.w3.org/1999/xlink" xmlns:svgjs="http://svgjs.dev/svgjs" width="2000" height="1252" viewBox="0 0 2000 1252"><g transform="matrix(1,0,0,1,-1.2121212121212466,-2.01935483870966)"><svg viewBox="0 0 396 248" data-background-color="#ffffff" preserveAspectRatio="xMidYMid meet" height="1252" width="2000" xmlns="http://www.w3.org/2000/svg" xmlns:xlink="http://www.w3.org/1999/xlink"><g id="tight-bounds" transform="matrix(1,0,0,1,0.2400000000000091,0.4000000000000057)"><svg viewBox="0 0 395.52 247.2" height="247.2" width="395.52"><g><svg></svg></g><g><svg viewBox="0 0 395.52 247.2" height="247.2" width="395.52"><mask id="1be2ac7f-202b-4036-af97-1a67dbe16417"><rect width="395.52" height="247.2" fill="white"></rect><g transform="matrix(1,0,0,1,82.2296850393701,37.08000000000001)" id="clone"><svg viewBox="0 0 231.0606299212598 173.03999999999996" height="173.03999999999996" width="231.0606299212598"><g><svg viewBox="0 0 231.0606299212598 173.03999999999996" height="173.03999999999996" width="231.0606299212598"><g><svg viewBox="0 0 231.0606299212598 173.03999999999996" height="173.03999999999996" width="231.0606299212598"><g><svg viewBox="0 0 231.0606299212598 173.03999999999996" height="173.03999999999996" width="231.0606299212598"><g id="SvgjsG1556"><svg viewBox="0 0 231.0606299212598 173.03999999999996" height="173.03999999999996" width="231.0606299212598" id="SvgjsSvg1555"><g><svg viewBox="0 0 231.0606299212598 173.03999999999996" height="173.03999999999996" width="231.0606299212598"><g transform="matrix(1,0,0,1,0,0)"><svg width="231.0606299212598" viewBox="-0.8500000000000001 -35.52 51.870000000000005 39.10000000000001" height="173.03999999999996" data-palette-color="#4b91f1"><path d="M6.95-3.5L23.75-3.5 23.75 0 2.15 0 2.15-3.28 18.78-28.5 2.3-28.5 2.3-31.95 23.58-31.95 23.58-28.73 6.95-3.5ZM39.15 0.58L39.15 0.58Q33.22 0.58 30.26-2.75 27.3-6.08 27.3-12.2L27.3-12.2 27.3-19.78Q27.3-25.9 30.25-29.21 33.2-32.52 39.1-32.52L39.1-32.52Q41-32.52 42.56-32.18 44.12-31.83 45.35-31.28 46.57-30.73 47.42-30.13L47.42-30.13 47.77-26.28Q46.3-27.33 44.31-28.11 42.32-28.9 39.65-28.9L39.65-28.9Q35.62-28.9 33.57-26.51 31.52-24.13 31.52-19.73L31.52-19.73 31.52-12.35Q31.52-7.98 33.6-5.56 35.67-3.15 39.8-3.15L39.8-3.15Q42.45-3.15 44.48-3.93 46.52-4.7 48.02-5.83L48.02-5.83 47.67-1.88Q46.82-1.28 45.57-0.7 44.32-0.13 42.71 0.23 41.1 0.58 39.15 0.58Z" opacity="1" transform="matrix(1,0,0,1,0,0)" fill="black" class="wordmark-text-0" id="SvgjsPath1554" stroke-width="5" stroke="black" stroke-linejoin="round"></path></svg></g></svg></g></svg></g></svg></g><g></g></svg></g></svg></g></svg></g></mask><g mask="url(#1be2ac7f-202b-4036-af97-1a67dbe16417)"><g><path d="M151.337 220.12h129.984v27.08h-167.122v-25.378l128.668-195.129h-127.507v-26.693h164.645v24.913z" fill="#4b91f1" fill-rule="nonzero" stroke="none" stroke-width="1" stroke-linecap="butt" stroke-linejoin="miter" stroke-miterlimit="10" stroke-dasharray="" stroke-dashoffset="0" font-family="none" font-weight="none" font-size="none" text-anchor="none" style="mix-blend-mode: normal" data-fill-palette-color="tertiary"></path></g></g><g transform="matrix(1,0,0,1,82.2296850393701,37.08000000000001)"><svg viewBox="0 0 231.0606299212598 173.03999999999996" height="173.03999999999996" width="231.0606299212598"><g><svg viewBox="0 0 231.0606299212598 173.03999999999996" height="173.03999999999996" width="231.0606299212598"><g><svg viewBox="0 0 231.0606299212598 173.03999999999996" height="173.03999999999996" width="231.0606299212598"><g><svg viewBox="0 0 231.0606299212598 173.03999999999996" height="173.03999999999996" width="231.0606299212598"><g id="textblocktransform"><svg viewBox="0 0 231.0606299212598 173.03999999999996" height="173.03999999999996" width="231.0606299212598" id="textblock"><g><svg viewBox="0 0 231.0606299212598 173.03999999999996" height="173.03999999999996" width="231.0606299212598"><g transform="matrix(1,0,0,1,0,0)"><svg width="231.0606299212598" viewBox="-0.8500000000000001 -35.52 51.870000000000005 39.10000000000001" height="173.03999999999996" data-palette-color="#4b91f1"><path d="M6.95-3.5L23.75-3.5 23.75 0 2.15 0 2.15-3.28 18.78-28.5 2.3-28.5 2.3-31.95 23.58-31.95 23.58-28.73 6.95-3.5ZM39.15 0.58L39.15 0.58Q33.22 0.58 30.26-2.75 27.3-6.08 27.3-12.2L27.3-12.2 27.3-19.78Q27.3-25.9 30.25-29.21 33.2-32.52 39.1-32.52L39.1-32.52Q41-32.52 42.56-32.18 44.12-31.83 45.35-31.28 46.57-30.73 47.42-30.13L47.42-30.13 47.77-26.28Q46.3-27.33 44.31-28.11 42.32-28.9 39.65-28.9L39.65-28.9Q35.62-28.9 33.57-26.51 31.52-24.13 31.52-19.73L31.52-19.73 31.52-12.35Q31.52-7.98 33.6-5.56 35.67-3.15 39.8-3.15L39.8-3.15Q42.45-3.15 44.48-3.93 46.52-4.7 48.02-5.83L48.02-5.83 47.67-1.88Q46.82-1.28 45.57-0.7 44.32-0.13 42.71 0.23 41.1 0.58 39.15 0.58Z" opacity="1" transform="matrix(1,0,0,1,0,0)" fill="#4b91f1" class="wordmark-text-0" data-fill-palette-color="primary" id="text-0"></path></svg></g></svg></g></svg></g></svg></g><g></g></svg></g></svg></g></svg></g></svg></g><defs></defs></svg><rect width="395.52" height="247.2" fill="none" stroke="none" visibility="hidden"></rect></g></svg></g></svg>